<svg width="19" height="18" viewBox="0 0 19 18" fill="none" xmlns="http://www.w3.org/2000/svg">
<mask id="mask0_52_97" style="mask-type:alpha" maskUnits="userSpaceOnUse" x="0" y="0" width="19" height="18">
<rect x="0.70166" width="18" height="18" fill="#D9D9D9"/>
</mask>
<g mask="url(#mask0_52_97)">
<path d="M9.70166 16.5C8.66416 16.5 7.68916 16.3031 6.77666 15.9094C5.86416 15.5156 5.07041 14.9813 4.39541 14.3063C3.72041 13.6313 3.18604 12.8375 2.79229 11.925C2.39854 11.0125 2.20166 10.0375 2.20166 9C2.20166 7.9625 2.39854 6.9875 2.79229 6.075C3.18604 5.1625 3.72041 4.36875 4.39541 3.69375C5.07041 3.01875 5.86416 2.48438 6.77666 2.09063C7.68916 1.69687 8.66416 1.5 9.70166 1.5C10.7392 1.5 11.7142 1.69687 12.6267 2.09063C13.5392 2.48438 14.3329 3.01875 15.0079 3.69375C15.6829 4.36875 16.2173 5.1625 16.611 6.075C17.0048 6.9875 17.2017 7.9625 17.2017 9V10.0875C17.2017 10.825 16.9485 11.4531 16.4423 11.9719C15.936 12.4906 15.3142 12.75 14.5767 12.75C14.1392 12.75 13.7267 12.6562 13.3392 12.4688C12.9517 12.2812 12.6267 12.0125 12.3642 11.6625C12.0017 12.025 11.5923 12.2969 11.136 12.4781C10.6798 12.6594 10.2017 12.75 9.70166 12.75C8.66416 12.75 7.77979 12.3844 7.04854 11.6531C6.31729 10.9219 5.95166 10.0375 5.95166 9C5.95166 7.9625 6.31729 7.07812 7.04854 6.34688C7.77979 5.61562 8.66416 5.25 9.70166 5.25C10.7392 5.25 11.6235 5.61562 12.3548 6.34688C13.086 7.07812 13.4517 7.9625 13.4517 9V10.0875C13.4517 10.4125 13.5579 10.6875 13.7704 10.9125C13.9829 11.1375 14.2517 11.25 14.5767 11.25C14.9017 11.25 15.1704 11.1375 15.3829 10.9125C15.5954 10.6875 15.7017 10.4125 15.7017 10.0875V9C15.7017 7.325 15.1204 5.90625 13.9579 4.74375C12.7954 3.58125 11.3767 3 9.70166 3C8.02666 3 6.60791 3.58125 5.44541 4.74375C4.28291 5.90625 3.70166 7.325 3.70166 9C3.70166 10.675 4.28291 12.0938 5.44541 13.2563C6.60791 14.4187 8.02666 15 9.70166 15H13.4517V16.5H9.70166ZM9.70166 11.25C10.3267 11.25 10.8579 11.0312 11.2954 10.5938C11.7329 10.1562 11.9517 9.625 11.9517 9C11.9517 8.375 11.7329 7.84375 11.2954 7.40625C10.8579 6.96875 10.3267 6.75 9.70166 6.75C9.07666 6.75 8.54541 6.96875 8.10791 7.40625C7.67041 7.84375 7.45166 8.375 7.45166 9C7.45166 9.625 7.67041 10.1562 8.10791 10.5938C8.54541 11.0312 9.07666 11.25 9.70166 11.25Z" fill="#DE435F"/>
</g>
</svg>
