<svg width="19" height="18" viewBox="0 0 19 18" fill="none" xmlns="http://www.w3.org/2000/svg">
<mask id="mask0_52_102" style="mask-type:alpha" maskUnits="userSpaceOnUse" x="0" y="0" width="19" height="18">
<rect x="0.70166" width="18" height="18" fill="#D9D9D9"/>
</mask>
<g mask="url(#mask0_52_102)">
<path d="M9.70166 9C10.1142 9 10.4673 8.85313 10.761 8.55938C11.0548 8.26563 11.2017 7.9125 11.2017 7.5C11.2017 7.0875 11.0548 6.73438 10.761 6.44063C10.4673 6.14687 10.1142 6 9.70166 6C9.28916 6 8.93604 6.14687 8.64229 6.44063C8.34854 6.73438 8.20166 7.0875 8.20166 7.5C8.20166 7.9125 8.34854 8.26563 8.64229 8.55938C8.93604 8.85313 9.28916 9 9.70166 9ZM9.70166 14.5125C11.2267 13.1125 12.3579 11.8406 13.0954 10.6969C13.8329 9.55312 14.2017 8.5375 14.2017 7.65C14.2017 6.2875 13.7673 5.17188 12.8985 4.30312C12.0298 3.43438 10.9642 3 9.70166 3C8.43916 3 7.37354 3.43438 6.50479 4.30312C5.63604 5.17188 5.20166 6.2875 5.20166 7.65C5.20166 8.5375 5.57041 9.55312 6.30791 10.6969C7.04541 11.8406 8.17666 13.1125 9.70166 14.5125ZM9.70166 16.5C7.68916 14.7875 6.18604 13.1969 5.19229 11.7281C4.19854 10.2594 3.70166 8.9 3.70166 7.65C3.70166 5.775 4.30479 4.28125 5.51104 3.16875C6.71729 2.05625 8.11416 1.5 9.70166 1.5C11.2892 1.5 12.686 2.05625 13.8923 3.16875C15.0985 4.28125 15.7017 5.775 15.7017 7.65C15.7017 8.9 15.2048 10.2594 14.211 11.7281C13.2173 13.1969 11.7142 14.7875 9.70166 16.5Z" fill="#DE435F"/>
</g>
</svg>
