<svg xmlns="http://www.w3.org/2000/svg" width="252" height="58" fill="none">
    <path fill="#606060" d="m0 0 29.599 31.06 28.136 26.675H0V0Z"/>
    <path fill="#303030" d="M57.735 0 28.137 31.06 0 57.735h57.735V0ZM76.148 15.673l-1.33 12.098h-2.174l2.174-18.8 7.163 12.968 7.162-12.968 2.174 18.8h-2.174l-1.33-12.098-5.832 10.436-5.832-10.436ZM94.247 11.145c0-.392.137-.725.41-.997.29-.273.622-.41.997-.41.392 0 .725.137.998.41.273.272.41.605.41.997 0 .375-.137.708-.41.998-.273.272-.606.409-.998.409-.375 0-.707-.136-.997-.41a1.414 1.414 0 0 1-.41-.997Zm.384 4.86h2.046v11.766h-2.046V16.005ZM102.938 16.005v11.766h-2.046V16.005h2.046Zm3.556 2.251a3.181 3.181 0 0 0-.742-.435c-.222-.102-.503-.153-.844-.153-.512 0-.912.128-1.202.383-.29.256-.495.606-.614 1.05a6.696 6.696 0 0 0-.154 1.508h-.921c0-.938.162-1.765.486-2.48.341-.734.776-1.314 1.305-1.74.529-.426 1.066-.64 1.611-.64a3.7 3.7 0 0 1 1.177.18c.375.102.716.315 1.023.639l-1.125 1.688ZM108.262 21.888c0-1.193.264-2.25.793-3.172a5.971 5.971 0 0 1 2.2-2.174c.92-.528 1.952-.793 3.095-.793 1.159 0 2.191.265 3.095.793a5.786 5.786 0 0 1 2.174 2.174c.546.921.818 1.979.818 3.172 0 1.177-.272 2.234-.818 3.172a5.787 5.787 0 0 1-2.174 2.174c-.904.529-1.936.793-3.095.793-1.143 0-2.175-.264-3.095-.793a5.973 5.973 0 0 1-2.2-2.174c-.529-.938-.793-1.995-.793-3.172Zm2.072 0c0 .819.17 1.543.511 2.174.358.631.836 1.134 1.433 1.51.614.358 1.304.537 2.072.537.767 0 1.449-.18 2.046-.537a3.926 3.926 0 0 0 1.432-1.51c.358-.63.538-1.355.538-2.174 0-.818-.18-1.543-.538-2.174a3.703 3.703 0 0 0-1.432-1.51c-.597-.357-1.279-.536-2.046-.536-.768 0-1.458.179-2.072.537a3.94 3.94 0 0 0-1.433 1.51c-.341.63-.511 1.355-.511 2.173ZM123.735 24.165c.238.358.511.69.818.997.307.307.657.555 1.049.742.409.17.852.256 1.33.256.58 0 1.032-.128 1.356-.384.341-.273.511-.64.511-1.1 0-.409-.136-.75-.409-1.023a2.937 2.937 0 0 0-.998-.716 13.057 13.057 0 0 0-1.304-.563 17.943 17.943 0 0 1-1.561-.716 4.533 4.533 0 0 1-1.304-1.1c-.341-.46-.512-1.032-.512-1.714 0-.699.179-1.279.538-1.739.375-.46.852-.802 1.432-1.023a5.253 5.253 0 0 1 1.842-.333c.631 0 1.219.103 1.765.307a5.195 5.195 0 0 1 1.483.819c.426.34.759.733.998 1.176l-1.637 1.05a4.02 4.02 0 0 0-1.228-1.1c-.478-.29-1.023-.436-1.637-.436-.426 0-.793.094-1.1.282-.307.187-.46.477-.46.87 0 .306.119.58.358.818.238.239.545.452.92.64.376.187.768.366 1.177.537.682.273 1.305.57 1.867.895.563.307 1.006.682 1.33 1.125.342.444.512 1.015.512 1.714 0 1.023-.375 1.876-1.125 2.558-.734.682-1.706 1.023-2.916 1.023-.785 0-1.493-.136-2.123-.41a5.492 5.492 0 0 1-1.612-1.099 5.299 5.299 0 0 1-.972-1.356l1.612-.997ZM133.565 7.82h2.046V27.77h-2.046V7.82ZM140.381 24.14c0 .443.102.826.307 1.15.222.324.52.572.895.742.392.154.836.23 1.33.23.631 0 1.194-.128 1.689-.383a2.96 2.96 0 0 0 1.662-2.711l.409 1.534c0 .75-.23 1.373-.69 1.867a4.014 4.014 0 0 1-1.663 1.1 5.59 5.59 0 0 1-1.944.358c-.716 0-1.39-.145-2.021-.435a3.789 3.789 0 0 1-1.483-1.304c-.375-.563-.563-1.245-.563-2.047 0-1.142.401-2.054 1.202-2.736.819-.7 1.953-1.05 3.402-1.05.853 0 1.561.103 2.123.308.58.187 1.041.41 1.382.665.341.239.571.435.69.588v1.202c-.597-.409-1.21-.699-1.841-.87a7.06 7.06 0 0 0-2.021-.28c-.665 0-1.211.085-1.637.255-.409.17-.716.41-.921.716-.205.307-.307.674-.307 1.1Zm-.307-5.424-.998-1.509c.444-.324 1.049-.648 1.817-.972.784-.324 1.722-.486 2.813-.486.921 0 1.723.145 2.405.435.699.273 1.236.674 1.611 1.202.392.529.588 1.177.588 1.944v8.441h-2.046v-8.16c0-.409-.068-.741-.204-.997a1.528 1.528 0 0 0-.589-.64 2.499 2.499 0 0 0-.844-.332 4.95 4.95 0 0 0-1.023-.102c-.58 0-1.108.068-1.586.204-.46.137-.853.299-1.177.486a9.18 9.18 0 0 0-.767.486ZM149.732 16.005h2.302l3.325 8.313 3.325-8.313h2.302l-5.627 12.662-5.627-12.662ZM171.991 18.819c0 1.381.307 2.6.921 3.658.631 1.057 1.45 1.884 2.456 2.48a6.302 6.302 0 0 0 3.274.896c.853 0 1.628-.11 2.328-.333a7.303 7.303 0 0 0 1.944-.92 6.877 6.877 0 0 0 1.483-1.407v2.865a7.637 7.637 0 0 1-2.455 1.483c-.887.324-1.987.486-3.3.486a9.219 9.219 0 0 1-3.504-.665 8.98 8.98 0 0 1-2.84-1.918 9.055 9.055 0 0 1-1.918-2.942c-.461-1.125-.691-2.353-.691-3.683 0-1.33.23-2.558.691-3.684a8.766 8.766 0 0 1 1.918-2.916 8.448 8.448 0 0 1 2.84-1.918 8.919 8.919 0 0 1 3.504-.69c1.313 0 2.413.161 3.3.485a7.637 7.637 0 0 1 2.455 1.484v2.865a6.387 6.387 0 0 0-1.483-1.382 6.873 6.873 0 0 0-1.944-.946c-.7-.222-1.475-.332-2.328-.332a6.302 6.302 0 0 0-3.274.895c-1.006.597-1.825 1.424-2.456 2.481-.614 1.04-.921 2.26-.921 3.658ZM190.141 7.82V27.77h-2.046V7.82h2.046Zm5.5 12.79c0-.973-.213-1.706-.64-2.2-.409-.495-1.031-.742-1.867-.742-.597 0-1.125.128-1.586.383a2.809 2.809 0 0 0-1.048 1.05 3.13 3.13 0 0 0-.359 1.508h-.665c0-.938.179-1.765.538-2.48.358-.734.844-1.314 1.458-1.74.63-.426 1.355-.64 2.174-.64.818 0 1.526.17 2.123.512.614.34 1.083.852 1.407 1.535.341.682.511 1.534.511 2.558v7.417h-2.046V20.61ZM203.58 23.167c0 .938.214 1.663.64 2.174.426.512 1.049.768 1.867.768.597 0 1.117-.12 1.56-.358.461-.256.81-.606 1.049-1.05.256-.442.384-.954.384-1.534v-7.162h2.046v11.766h-2.046V25.93c-.392.699-.878 1.227-1.458 1.586-.58.34-1.262.511-2.046.511-1.228 0-2.209-.418-2.942-1.253-.733-.836-1.1-1.953-1.1-3.351v-7.418h2.046v7.162ZM216.891 33.399h-2.046V16.005h2.046V33.4Zm9.848-11.51c0 1.261-.264 2.352-.793 3.273-.528.921-1.236 1.629-2.123 2.123-.869.495-1.841.742-2.916.742-.972 0-1.833-.247-2.583-.742-.733-.494-1.313-1.202-1.74-2.123-.409-.92-.613-2.012-.613-3.274 0-1.279.204-2.37.613-3.274.427-.92 1.007-1.628 1.74-2.123.75-.494 1.611-.742 2.583-.742 1.075 0 2.047.248 2.916.742.887.495 1.595 1.202 2.123 2.123.529.904.793 1.995.793 3.274Zm-2.072 0c0-.904-.187-1.672-.562-2.303a3.57 3.57 0 0 0-1.458-1.432 4.114 4.114 0 0 0-1.995-.486c-.597 0-1.186.162-1.765.486-.58.324-1.058.801-1.433 1.432-.375.631-.563 1.399-.563 2.302 0 .904.188 1.671.563 2.302.375.631.853 1.109 1.433 1.433.579.324 1.168.486 1.765.486.733 0 1.398-.162 1.995-.486a3.57 3.57 0 0 0 1.458-1.433c.375-.63.562-1.398.562-2.302ZM230.482 24.318c0 .41.094.76.281 1.049.188.273.461.486.819.64.375.136.835.204 1.381.204.682 0 1.287-.102 1.816-.307a2.5 2.5 0 0 0 1.228-.972c.307-.443.46-1.031.46-1.765l.41 1.28c0 .75-.205 1.398-.614 1.943-.393.529-.921.938-1.586 1.228-.665.273-1.407.41-2.226.41-.801 0-1.509-.137-2.123-.41-.614-.29-1.091-.69-1.432-1.202-.324-.512-.486-1.126-.486-1.842 0-.92.222-1.68.665-2.277.443-.613 1.04-1.074 1.791-1.38.767-.308 1.62-.461 2.557-.461.751 0 1.39.102 1.919.307.545.187.98.41 1.304.665.324.239.546.435.665.588v1.202a6.374 6.374 0 0 0-1.765-.895c-.596-.204-1.27-.307-2.02-.307-.682 0-1.254.094-1.714.282-.443.187-.776.451-.998.793-.221.34-.332.75-.332 1.227Zm0-5.55-.998-1.56c.444-.325 1.04-.649 1.791-.973.75-.324 1.654-.486 2.711-.486.904 0 1.688.145 2.353.435.682.273 1.211.674 1.586 1.202.393.529.589 1.177.589 1.944v8.441h-2.047v-8.44c0-.598-.256-1.04-.767-1.33-.495-.308-1.066-.461-1.714-.461-.563 0-1.074.077-1.535.23a5.21 5.21 0 0 0-1.202.512c-.324.187-.58.35-.767.486Zm7.597-8.39-4.604 3.837-1.151-.768 3.836-4.092 1.919 1.023ZM242.897 21.888c0 .819.17 1.543.511 2.174.358.631.836 1.134 1.433 1.51.614.358 1.304.537 2.071.537a5.39 5.39 0 0 0 1.765-.282 5.172 5.172 0 0 0 1.458-.793c.41-.34.7-.699.87-1.074v2.558c-.409.477-.997.853-1.765 1.125a7.162 7.162 0 0 1-2.328.384c-1.142 0-2.174-.264-3.095-.793a5.978 5.978 0 0 1-2.199-2.174c-.529-.938-.793-1.995-.793-3.172 0-1.193.264-2.25.793-3.172a5.976 5.976 0 0 1 2.199-2.174c.921-.528 1.953-.793 3.095-.793.802 0 1.578.137 2.328.41.768.255 1.356.622 1.765 1.1v2.557c-.17-.392-.46-.75-.87-1.074a4.733 4.733 0 0 0-1.458-.767 4.984 4.984 0 0 0-1.765-.307c-.767 0-1.457.179-2.071.537a3.94 3.94 0 0 0-1.433 1.51c-.341.63-.511 1.355-.511 2.173Zm4.015-9.848 2.814-2.43 1.279 1.024-4.093 3.58-4.092-3.58 1.279-1.024 2.813 2.43Z"/>
    <path fill="#606060" d="m75.394 47.24.351-.935h3.625l.351.936h-4.327Zm2.14-3.882-1.38 3.251-.093.21-1.216 2.877h-1.111l3.8-8.594 3.8 8.594h-1.11L79.03 46.89l-.094-.234-1.403-3.297ZM85.487 41.511h.995v8.185h-.995v-8.185Zm2.456 8.185h-1.906v-.994h1.906c.46 0 .881-.07 1.263-.21a2.89 2.89 0 0 0 .982-.62c.273-.273.483-.6.632-.982.148-.382.222-.81.222-1.286s-.074-.905-.222-1.287a2.686 2.686 0 0 0-.632-.97 2.67 2.67 0 0 0-.982-.62 3.464 3.464 0 0 0-1.263-.222h-1.906v-.994h1.906c.795 0 1.5.171 2.117.514.615.343 1.099.823 1.45 1.439.35.608.526 1.321.526 2.14 0 .818-.176 1.535-.526 2.151a3.75 3.75 0 0 1-1.45 1.427c-.616.343-1.322.514-2.117.514ZM99.162 47.849l2.689-6.338h1.111l-3.8 8.594-3.8-8.594h1.11l2.69 6.338ZM107.528 45.604c0 .615.133 1.165.398 1.648.273.484.643.866 1.111 1.146.468.28.998.421 1.59.421.6 0 1.13-.14 1.59-.42.468-.281.834-.663 1.1-1.147.272-.483.409-1.033.409-1.648 0-.616-.137-1.166-.409-1.65a2.993 2.993 0 0 0-1.1-1.145c-.46-.28-.99-.421-1.59-.421-.592 0-1.122.14-1.59.42-.468.282-.838.663-1.111 1.147-.265.483-.398 1.033-.398 1.649Zm-1.052 0c0-.6.101-1.154.304-1.66.21-.515.503-.96.877-1.334a3.953 3.953 0 0 1 1.321-.889 4.128 4.128 0 0 1 1.649-.327c.6 0 1.15.11 1.649.327.507.21.947.507 1.321.89.374.373.663.818.865 1.332.211.507.316 1.06.316 1.66 0 .593-.105 1.146-.316 1.661a3.98 3.98 0 0 1-.865 1.345c-.374.374-.814.67-1.321.888a4.202 4.202 0 0 1-1.649.316 4.259 4.259 0 0 1-1.649-.316 4.199 4.199 0 0 1-1.321-.888 4.135 4.135 0 0 1-.877-1.345 4.483 4.483 0 0 1-.304-1.66ZM119.339 41.511h.994v8.185h-.994v-8.185Zm4.21 0h1.227l-3.543 3.835 3.719 4.35h-1.228l-3.695-4.326 3.52-3.859ZM129.891 47.24l.351-.935h3.625l.351.936h-4.327Zm2.14-3.882-1.38 3.251-.093.21-1.216 2.877h-1.111l3.8-8.594 3.8 8.594h-1.11l-1.193-2.806-.094-.234-1.403-3.297Zm1.52-4.712-2.104 1.754-.527-.35 1.754-1.872.877.468ZM138.344 42.446v-.935h5.203v.935h-2.105v7.25h-.994v-7.25h-2.104ZM153.952 41.511h.994v8.594l-6.197-6.501v6.092h-.994v-8.594l6.197 6.501v-6.092ZM159.979 41.511h.994v8.185h-.994v-8.185Zm2.011-2.573-2.105 1.754-.514-.35 1.754-1.871.865.467ZM172.665 41.511h.994v8.185h-.994v-8.185Zm4.21 0h1.227l-3.543 3.835 3.719 4.35h-1.228l-3.695-4.326 3.52-3.859ZM183.217 47.24l.351-.935h3.625l.351.936h-4.327Zm2.14-3.882-1.379 3.251-.094.21-1.216 2.877h-1.111l3.8-8.594 3.801 8.594h-1.111l-1.193-2.806-.094-.234-1.403-3.297ZM199.508 41.511h.994v8.594l-6.198-6.501v6.092h-.993v-8.594l6.197 6.501v-6.092ZM206.119 45.604c0 .631.141 1.188.421 1.672a3.2 3.2 0 0 0 1.123 1.134c.46.273.959.41 1.496.41.39 0 .745-.051 1.065-.153.327-.101.623-.241.888-.42.265-.188.491-.402.678-.644v1.31c-.343.304-.717.53-1.122.678-.405.148-.908.222-1.509.222a4.216 4.216 0 0 1-1.602-.304 4.098 4.098 0 0 1-1.297-.877 4.118 4.118 0 0 1-.877-1.345 4.395 4.395 0 0 1-.316-1.683c0-.608.105-1.17.316-1.684.21-.515.502-.96.877-1.333a3.859 3.859 0 0 1 1.297-.877 4.08 4.08 0 0 1 1.602-.316c.601 0 1.104.074 1.509.222.405.148.779.374 1.122.678v1.31a2.916 2.916 0 0 0-.678-.631 3.138 3.138 0 0 0-.888-.433 3.514 3.514 0 0 0-1.065-.152c-.537 0-1.036.136-1.496.41a3.2 3.2 0 0 0-1.123 1.133c-.28.476-.421 1.033-.421 1.673ZM217.246 49.696v-.935h4.128v.935h-4.128Zm0-7.25v-.935h4.128v.935h-4.128Zm0 3.275v-.936h3.894v.936h-3.894Zm-.549-4.21h.993v8.185h-.993v-8.185ZM226.283 41.511h.994v7.25h3.215v.935h-4.209v-8.185ZM235.842 47.24l.35-.935h3.625l.351.936h-4.326Zm2.139-3.882-1.379 3.251-.094.21-1.216 2.877h-1.111l3.8-8.594 3.801 8.594h-1.111l-1.193-2.806-.093-.234-1.404-3.297Zm1.521-4.712-2.105 1.754-.526-.35 1.754-1.872.877.468ZM247.396 45.662h1.111l2.923 4.034h-1.227l-2.807-4.034Zm-1.461-4.151h.994v8.185h-.994v-8.185Zm.549.877v-.877h1.672c.53 0 1.002.101 1.415.304.421.195.752.476.994.842.25.366.374.803.374 1.31 0 .498-.124.935-.374 1.31a2.42 2.42 0 0 1-.994.853c-.413.195-.885.292-1.415.292h-1.672v-.877h1.672c.351 0 .659-.062.924-.187.273-.125.483-.304.632-.538.155-.234.233-.518.233-.853 0-.336-.078-.62-.233-.854a1.435 1.435 0 0 0-.632-.538 2.148 2.148 0 0 0-.924-.187h-1.672Zm1.497-2.69 1.286-1.11.585.467-1.871 1.637-1.871-1.637.585-.467 1.286 1.11Z"/>
</svg>
